<svg width="101" height="12" viewBox="0 0 101 12" fill="none" xmlns="http://www.w3.org/2000/svg">
<path d="M5.858 2.78231C5.80584 2.3194 5.59069 1.96082 5.21255 1.70655C4.8344 1.44902 4.35846 1.32025 3.78472 1.32025C3.37397 1.32025 3.01865 1.38545 2.71874 1.51584C2.41883 1.64298 2.18575 1.81901 2.01949 2.04394C1.8565 2.26562 1.775 2.51826 1.775 2.80187C1.775 3.03984 1.83042 3.24521 1.94126 3.41798C2.05535 3.59076 2.20368 3.73582 2.38623 3.85318C2.57204 3.96727 2.7709 4.06344 2.98279 4.14168C3.19468 4.21665 3.39842 4.27859 3.59402 4.32749L4.57198 4.58176C4.89145 4.66 5.21907 4.76594 5.55483 4.8996C5.8906 5.03325 6.20192 5.20929 6.48879 5.4277C6.77566 5.64611 7.00711 5.91668 7.18314 6.23941C7.36244 6.56214 7.45208 6.94843 7.45208 7.39829C7.45208 7.96551 7.30539 8.46916 7.012 8.90925C6.72187 9.34933 6.29972 9.69651 5.74554 9.95078C5.19462 10.205 4.52797 10.3322 3.7456 10.3322C2.99583 10.3322 2.34711 10.2132 1.79945 9.97523C1.25179 9.73726 0.823119 9.39986 0.513431 8.96304C0.203742 8.52295 0.0325988 8.00137 0 7.39829H1.51584C1.54518 7.76014 1.66254 8.06168 1.86791 8.30291C2.07654 8.54088 2.34222 8.71854 2.66495 8.8359C2.99094 8.95 3.3479 9.00704 3.73582 9.00704C4.16287 9.00704 4.54264 8.94022 4.87515 8.80656C5.21092 8.66965 5.47497 8.48057 5.6673 8.23934C5.85963 7.99485 5.9558 7.70961 5.9558 7.38363C5.9558 7.08698 5.87104 6.84412 5.70153 6.65504C5.53527 6.46597 5.30871 6.30949 5.02184 6.18562C4.73823 6.06174 4.41714 5.95254 4.05855 5.858L2.87521 5.53527C2.07328 5.31686 1.43761 4.99576 0.968184 4.57198C0.502021 4.1482 0.26894 3.5875 0.26894 2.88988C0.26894 2.31288 0.425414 1.80923 0.738362 1.37893C1.05131 0.948624 1.4751 0.614487 2.00972 0.376516C2.54434 0.135285 3.14741 0.0146691 3.81895 0.0146691C4.497 0.0146691 5.09519 0.133655 5.61351 0.371626C6.13509 0.609597 6.54584 0.937215 6.84575 1.35448C7.14565 1.76848 7.30213 2.24443 7.31517 2.78231H5.858Z" fill="black"/>
<path d="M12.9397 6.91909H14.4262L15.4726 8.28335L15.9665 8.88969L17.6339 11.0657H16.0887L14.9738 9.61338L14.5924 9.08528L12.9397 6.91909ZM17.9566 5.15876C17.9566 6.228 17.761 7.14728 17.3699 7.91662C16.9787 8.68269 16.4424 9.27272 15.7611 9.68673C15.0831 10.0975 14.3121 10.3028 13.4482 10.3028C12.5811 10.3028 11.8069 10.0975 11.1256 9.68673C10.4475 9.27272 9.91288 8.68106 9.5217 7.91173C9.13051 7.14239 8.93492 6.22474 8.93492 5.15876C8.93492 4.08952 9.13051 3.17186 9.5217 2.40579C9.91288 1.63646 10.4475 1.04642 11.1256 0.635676C11.8069 0.221671 12.5811 0.0146691 13.4482 0.0146691C14.3121 0.0146691 15.0831 0.221671 15.7611 0.635676C16.4424 1.04642 16.9787 1.63646 17.3699 2.40579C17.761 3.17186 17.9566 4.08952 17.9566 5.15876ZM16.4604 5.15876C16.4604 4.34379 16.3283 3.65758 16.0643 3.10014C15.8035 2.53945 15.4449 2.11566 14.9885 1.82879C14.5354 1.53866 14.022 1.3936 13.4482 1.3936C12.8712 1.3936 12.3562 1.53866 11.903 1.82879C11.4499 2.11566 11.0913 2.53945 10.8273 3.10014C10.5665 3.65758 10.4361 4.34379 10.4361 5.15876C10.4361 5.97373 10.5665 6.66156 10.8273 7.22226C11.0913 7.7797 11.4499 8.20348 11.903 8.49361C12.3562 8.78048 12.8712 8.92392 13.4482 8.92392C14.022 8.92392 14.5354 8.78048 14.9885 8.49361C15.4449 8.20348 15.8035 7.7797 16.0643 7.22226C16.3283 6.66156 16.4604 5.97373 16.4604 5.15876Z" fill="black"/>
<path d="M26.2803 0.151584H27.7962V6.73817C27.7962 7.43904 27.6315 8.06005 27.3023 8.60119C26.973 9.13907 26.5101 9.56285 25.9136 9.87254C25.317 10.179 24.6178 10.3322 23.8159 10.3322C23.0172 10.3322 22.3196 10.179 21.723 9.87254C21.1265 9.56285 20.6636 9.13907 20.3343 8.60119C20.0051 8.06005 19.8404 7.43904 19.8404 6.73817V0.151584H21.3514V6.61592C21.3514 7.06905 21.4508 7.47164 21.6497 7.82371C21.8518 8.17578 22.137 8.45287 22.5054 8.65498C22.8738 8.85383 23.3106 8.95326 23.8159 8.95326C24.3244 8.95326 24.7629 8.85383 25.1312 8.65498C25.5028 8.45287 25.7865 8.17578 25.982 7.82371C26.1809 7.47164 26.2803 7.06905 26.2803 6.61592V0.151584Z" fill="black"/>
<path d="M30.8389 10.1659H29.235L32.8388 0.151584H34.5845L38.1883 10.1659H36.5844L33.7532 1.9706H33.675L30.8389 10.1659ZM31.1078 6.2443H36.3106V7.51565H31.1078V6.2443Z" fill="black"/>
<path d="M39.6344 10.1659V0.151584H43.204C43.9798 0.151584 44.6237 0.285239 45.1355 0.552549C45.6505 0.819859 46.0352 1.18986 46.2895 1.66254C46.5437 2.13196 46.6709 2.67473 46.6709 3.29085C46.6709 3.9037 46.5421 4.44321 46.2846 4.90938C46.0303 5.37228 45.6456 5.7325 45.1306 5.99003C44.6188 6.24756 43.9749 6.37632 43.1991 6.37632H40.495V5.07563H43.0622C43.5512 5.07563 43.9489 5.00554 44.2553 4.86537C44.565 4.72519 44.7915 4.52145 44.935 4.25414C45.0784 3.98683 45.1501 3.66573 45.1501 3.29085C45.1501 2.9127 45.0768 2.58508 44.9301 2.30799C44.7867 2.0309 44.5601 1.81901 44.2504 1.67232C43.944 1.52236 43.5414 1.44739 43.0426 1.44739H41.1454V10.1659H39.6344ZM44.578 5.64774L47.0523 10.1659H45.3311L42.9057 5.64774H44.578Z" fill="black"/>
<path d="M48.5094 10.1659V0.151584H54.788V1.45228H50.0204V4.50352H54.4603V5.79932H50.0204V8.86524H54.8466V10.1659H48.5094Z" fill="black"/>
<path d="M58.6909 10.1659V0.151584H61.7763C62.412 0.151584 62.9564 0.281979 63.4095 0.542769C63.8659 0.80356 64.2163 1.16052 64.4608 1.61364C64.7053 2.06676 64.8276 2.58345 64.8276 3.16371C64.8276 3.73745 64.7053 4.25088 64.4608 4.70401C64.2163 5.15713 63.8659 5.51571 63.4095 5.77977C62.9564 6.04056 62.4136 6.17095 61.7812 6.17095H59.1212V5.60373H61.7665C62.2816 5.60373 62.7217 5.49941 63.0868 5.29078C63.4519 5.07889 63.7323 4.79039 63.9278 4.42528C64.1234 4.05692 64.2212 3.63639 64.2212 3.16371C64.2212 2.68777 64.1234 2.26562 63.9278 1.89725C63.7323 1.52888 63.4503 1.24038 63.0819 1.03175C62.7168 0.823119 62.2767 0.718803 61.7617 0.718803H59.3021V10.1659H58.6909Z" fill="black"/>
<path d="M67.1759 10.1659V0.151584H67.7871V9.59871H72.677V10.1659H67.1759Z" fill="black"/>
<path d="M75.1671 10.1659H74.5216L78.1352 0.151584H78.8393L82.4529 10.1659H81.8075L78.5117 0.938845H78.4628L75.1671 10.1659ZM76.0815 6.39588H80.8931V6.9631H76.0815V6.39588Z" fill="black"/>
<path d="M91.9734 0.151584V10.1659H91.3768L84.9907 1.26157H84.9321V10.1659H84.3208V0.151584H84.9223L91.3084 9.06572H91.3671V0.151584H91.9734Z" fill="black"/>
<path d="M100.262 2.65517C100.209 2.03253 99.9552 1.52888 99.4988 1.14422C99.0457 0.759552 98.4589 0.567219 97.7385 0.567219C97.2528 0.567219 96.8208 0.656866 96.4427 0.836159C96.0645 1.01545 95.7679 1.25994 95.5527 1.56963C95.3376 1.87932 95.23 2.23465 95.23 2.63561C95.23 2.89314 95.2789 3.12622 95.3767 3.33486C95.4778 3.54023 95.6196 3.72441 95.8021 3.8874C95.9847 4.04714 96.2015 4.18731 96.4525 4.30793C96.7035 4.42854 96.9806 4.53449 97.2837 4.62577L98.3791 4.9485C98.7539 5.06259 99.0995 5.19462 99.4157 5.34457C99.7352 5.49452 100.012 5.67382 100.247 5.88245C100.485 6.08782 100.669 6.32905 100.8 6.60614C100.933 6.88323 101 7.2027 101 7.56455C101 8.09265 100.863 8.56533 100.589 8.9826C100.319 9.39986 99.9324 9.72911 99.4304 9.97034C98.9316 10.2083 98.3432 10.3273 97.6651 10.3273C97.0197 10.3273 96.4574 10.2181 95.9782 9.99968C95.5022 9.78127 95.1257 9.4781 94.8486 9.09017C94.5715 8.69899 94.415 8.24912 94.3792 7.74058H95.0051C95.0377 8.15459 95.1697 8.51317 95.4012 8.81634C95.6359 9.11625 95.9472 9.3477 96.3351 9.5107C96.723 9.67369 97.1664 9.75519 97.6651 9.75519C98.203 9.75519 98.6773 9.66391 99.0881 9.48136C99.4988 9.29554 99.8199 9.03801 100.051 8.70877C100.283 8.37952 100.399 7.99648 100.399 7.55966C100.399 7.20759 100.315 6.90605 100.149 6.65504C99.9829 6.40403 99.7368 6.18725 99.4108 6.0047C99.0881 5.82214 98.6871 5.65915 98.2079 5.51571L97.0393 5.16365C96.2569 4.92568 95.6587 4.60132 95.2447 4.19057C94.8339 3.77983 94.6286 3.26803 94.6286 2.65517C94.6286 2.14011 94.7655 1.68373 95.0393 1.28602C95.3131 0.885057 95.6848 0.570478 96.1542 0.342287C96.6269 0.114096 97.1599 0 97.7532 0C98.3497 0 98.8762 0.115726 99.3326 0.347177C99.789 0.575368 100.151 0.889947 100.418 1.29091C100.685 1.68862 100.834 2.14337 100.863 2.65517H100.262Z" fill="black"/>
</svg>
